<svg width="62" height="62" viewBox="0 0 62 62" fill="none" xmlns="http://www.w3.org/2000/svg">
<g filter="url(#filter0_d)">
<rect x="4" width="25" height="25" fill="white"/>
<rect x="4" y="29" width="25" height="25" fill="#F55400"/>
<rect x="33" y="29" width="25" height="25" fill="#00D497"/>
<path d="M35.2941 10.056C34.9261 10.056 34.6008 9.97333 34.3181 9.808C34.0408 9.64267 33.8248 9.408 33.6701 9.104C33.5208 8.79467 33.4461 8.43733 33.4461 8.032C33.4461 7.62667 33.5208 7.272 33.6701 6.968C33.8248 6.65867 34.0408 6.42133 34.3181 6.256C34.6008 6.09067 34.9261 6.008 35.2941 6.008C35.6621 6.008 35.9875 6.09067 36.2701 6.256C36.5528 6.42133 36.7688 6.65867 36.9181 6.968C37.0728 7.272 37.1501 7.62667 37.1501 8.032C37.1501 8.43733 37.0728 8.79467 36.9181 9.104C36.7688 9.408 36.5528 9.64267 36.2701 9.808C35.9875 9.97333 35.6621 10.056 35.2941 10.056ZM35.2941 9.52C35.6781 9.52 35.9715 9.39467 36.1741 9.144C36.3821 8.888 36.4861 8.51733 36.4861 8.032C36.4861 7.55733 36.3821 7.192 36.1741 6.936C35.9661 6.67467 35.6728 6.544 35.2941 6.544C34.9155 6.544 34.6221 6.67467 34.4141 6.936C34.2061 7.192 34.1021 7.55733 34.1021 8.032C34.1021 8.512 34.2035 8.88 34.4061 9.136C34.6141 9.392 34.9101 9.52 35.2941 9.52ZM40.0436 6.024C40.2676 6.008 40.3796 6.09867 40.3796 6.296C40.3796 6.38133 40.3556 6.45067 40.3076 6.504C40.2596 6.552 40.177 6.58133 40.0596 6.592L39.8196 6.616C39.4623 6.648 39.1956 6.776 39.0196 7C38.849 7.21867 38.7636 7.47733 38.7636 7.776V9.72C38.7636 9.82667 38.7343 9.90667 38.6756 9.96C38.617 10.0133 38.5396 10.04 38.4436 10.04C38.3476 10.04 38.2676 10.0133 38.2036 9.96C38.145 9.90133 38.1156 9.82133 38.1156 9.72V6.344C38.1156 6.24267 38.1476 6.16533 38.2116 6.112C38.2756 6.05333 38.353 6.024 38.4436 6.024C38.529 6.024 38.601 6.05333 38.6596 6.112C38.7183 6.16533 38.7476 6.24 38.7476 6.336V6.784C38.8596 6.54933 39.017 6.37067 39.2196 6.248C39.4276 6.12533 39.665 6.05333 39.9316 6.032L40.0436 6.024ZM41.2639 10.04C41.1679 10.04 41.0879 10.0133 41.0239 9.96C40.9653 9.90133 40.9359 9.82133 40.9359 9.72V6.344C40.9359 6.24267 40.9653 6.16533 41.0239 6.112C41.0879 6.05333 41.1679 6.024 41.2639 6.024C41.3599 6.024 41.4373 6.05333 41.4959 6.112C41.5546 6.16533 41.5839 6.24267 41.5839 6.344V9.72C41.5839 9.82667 41.5546 9.90667 41.4959 9.96C41.4373 10.0133 41.3599 10.04 41.2639 10.04ZM41.2639 5.184C41.1359 5.184 41.0319 5.14667 40.9519 5.072C40.8719 4.99733 40.8319 4.89867 40.8319 4.776C40.8319 4.65867 40.8719 4.56267 40.9519 4.488C41.0319 4.41333 41.1359 4.376 41.2639 4.376C41.3919 4.376 41.4959 4.41333 41.5759 4.488C41.6559 4.56267 41.6959 4.65867 41.6959 4.776C41.6959 4.89867 41.6559 4.99733 41.5759 5.072C41.4959 5.14667 41.3919 5.184 41.2639 5.184ZM45.8113 9.096C45.87 9.096 45.9206 9.12 45.9633 9.168C46.006 9.216 46.0273 9.27733 46.0273 9.352C46.0273 9.48533 45.934 9.608 45.7473 9.72C45.5553 9.832 45.3526 9.91733 45.1393 9.976C44.926 10.0293 44.718 10.056 44.5153 10.056C43.9126 10.056 43.4353 9.87733 43.0833 9.52C42.7366 9.16267 42.5633 8.66933 42.5633 8.04C42.5633 7.64 42.6406 7.288 42.7953 6.984C42.95 6.67467 43.166 6.43467 43.4433 6.264C43.726 6.09333 44.046 6.008 44.4033 6.008C44.91 6.008 45.3126 6.17333 45.6113 6.504C45.91 6.83467 46.0593 7.28267 46.0593 7.848C46.0593 7.95467 46.038 8.032 45.9953 8.08C45.9526 8.128 45.8833 8.152 45.7873 8.152H43.2113C43.2593 9.06933 43.694 9.528 44.5153 9.528C44.7233 9.528 44.902 9.50133 45.0513 9.448C45.2006 9.38933 45.3606 9.312 45.5313 9.216C45.67 9.136 45.7633 9.096 45.8113 9.096ZM44.4113 6.512C44.07 6.512 43.7953 6.61867 43.5873 6.832C43.3846 7.04533 43.2646 7.34667 43.2273 7.736H45.4913C45.4806 7.34133 45.382 7.04 45.1953 6.832C45.0086 6.61867 44.7473 6.512 44.4113 6.512ZM48.9741 6.008C49.9074 6.008 50.3741 6.52267 50.3741 7.552V9.72C50.3741 9.82133 50.3447 9.90133 50.2861 9.96C50.2327 10.0133 50.1554 10.04 50.0541 10.04C49.9527 10.04 49.8727 10.0133 49.8141 9.96C49.7554 9.90133 49.7261 9.82133 49.7261 9.72V7.592C49.7261 7.22933 49.6541 6.96533 49.5101 6.8C49.3714 6.63467 49.1474 6.552 48.8381 6.552C48.4807 6.552 48.1954 6.66133 47.9821 6.88C47.7687 7.09867 47.6621 7.39467 47.6621 7.768V9.72C47.6621 9.82133 47.6327 9.90133 47.5741 9.96C47.5207 10.0133 47.4434 10.04 47.3421 10.04C47.2407 10.04 47.1607 10.0133 47.1021 9.96C47.0434 9.90133 47.0141 9.82133 47.0141 9.72V6.344C47.0141 6.248 47.0434 6.17067 47.1021 6.112C47.1607 6.05333 47.2407 6.024 47.3421 6.024C47.4381 6.024 47.5127 6.05333 47.5661 6.112C47.6247 6.17067 47.6541 6.24533 47.6541 6.336V6.744C47.7821 6.504 47.9607 6.32267 48.1901 6.2C48.4194 6.072 48.6807 6.008 48.9741 6.008ZM53.3609 9.528C53.5476 9.544 53.6409 9.62933 53.6409 9.784C53.6409 9.87467 53.6063 9.944 53.5369 9.992C53.4729 10.0347 53.3743 10.0507 53.2409 10.04L53.0249 10.024C52.5983 9.992 52.2836 9.864 52.0809 9.64C51.8783 9.416 51.7769 9.07733 51.7769 8.624V6.616H51.2409C51.1503 6.616 51.0783 6.59467 51.0249 6.552C50.9769 6.504 50.9529 6.44267 50.9529 6.368C50.9529 6.288 50.9769 6.224 51.0249 6.176C51.0783 6.128 51.1503 6.104 51.2409 6.104H51.7769V5.2C51.7769 5.09867 51.8063 5.02133 51.8649 4.968C51.9236 4.90933 52.0036 4.88 52.1049 4.88C52.2009 4.88 52.2783 4.90933 52.3369 4.968C52.3956 5.02133 52.4249 5.09867 52.4249 5.2V6.104H53.3129C53.3983 6.104 53.4649 6.128 53.5129 6.176C53.5663 6.224 53.5929 6.288 53.5929 6.368C53.5929 6.44267 53.5663 6.504 53.5129 6.552C53.4649 6.59467 53.3983 6.616 53.3129 6.616H52.4249V8.656C52.4249 8.94933 52.4836 9.16267 52.6009 9.296C52.7236 9.424 52.9049 9.496 53.1449 9.512L53.3609 9.528ZM55.8717 6.008C56.8477 6.008 57.3357 6.52 57.3357 7.544V9.72C57.3357 9.816 57.3064 9.89333 57.2477 9.952C57.1944 10.0107 57.1197 10.04 57.0237 10.04C56.9277 10.04 56.8504 10.0107 56.7917 9.952C56.733 9.89333 56.7037 9.816 56.7037 9.72V9.336C56.6024 9.56533 56.4477 9.744 56.2397 9.872C56.0317 9.99467 55.7917 10.056 55.5197 10.056C55.269 10.056 55.037 10.0053 54.8237 9.904C54.6157 9.80267 54.4504 9.66133 54.3277 9.48C54.205 9.29867 54.1437 9.09867 54.1437 8.88C54.1437 8.58667 54.2184 8.36 54.3677 8.2C54.517 8.03467 54.7624 7.91733 55.1037 7.848C55.445 7.77333 55.9197 7.736 56.5277 7.736H56.7037V7.472C56.7037 7.152 56.637 6.91733 56.5037 6.768C56.3757 6.61867 56.165 6.544 55.8717 6.544C55.509 6.544 55.141 6.64267 54.7677 6.84C54.6237 6.93067 54.5224 6.976 54.4637 6.976C54.3997 6.976 54.3464 6.952 54.3037 6.904C54.261 6.856 54.2397 6.79467 54.2397 6.72C54.2397 6.64533 54.261 6.58133 54.3037 6.528C54.3517 6.46933 54.4264 6.41067 54.5277 6.352C54.7144 6.24533 54.925 6.16267 55.1597 6.104C55.3997 6.04 55.637 6.008 55.8717 6.008ZM55.6077 9.544C55.9277 9.544 56.189 9.43733 56.3917 9.224C56.5997 9.00533 56.7037 8.72533 56.7037 8.384V8.152H56.5597C56.0904 8.152 55.733 8.17333 55.4877 8.216C55.2424 8.25333 55.0664 8.32 54.9597 8.416C54.8584 8.50667 54.8077 8.64267 54.8077 8.824C54.8077 9.032 54.8824 9.20533 55.0317 9.344C55.1864 9.47733 55.3784 9.544 55.6077 9.544ZM34.6201 22.456C34.4868 22.4667 34.3881 22.448 34.3241 22.4C34.2548 22.3573 34.2201 22.2907 34.2201 22.2C34.2201 22.056 34.3135 21.9733 34.5001 21.952L34.7241 21.936C34.9641 21.92 35.1401 21.848 35.2521 21.72C35.3695 21.592 35.4281 21.3813 35.4281 21.088V17.344C35.4281 17.2427 35.4575 17.1653 35.5161 17.112C35.5801 17.0533 35.6601 17.024 35.7561 17.024C35.8521 17.024 35.9295 17.0533 35.9881 17.112C36.0468 17.1653 36.0761 17.2427 36.0761 17.344V21.048C36.0761 21.496 35.9748 21.832 35.7721 22.056C35.5748 22.28 35.2655 22.408 34.8441 22.44L34.6201 22.456ZM35.7561 16.184C35.6281 16.184 35.5241 16.1467 35.4441 16.072C35.3641 15.9973 35.3241 15.8987 35.3241 15.776C35.3241 15.6587 35.3641 15.5627 35.4441 15.488C35.5241 15.4133 35.6281 15.376 35.7561 15.376C35.8841 15.376 35.9881 15.4133 36.0681 15.488C36.1481 15.5627 36.1881 15.6587 36.1881 15.776C36.1881 15.8987 36.1481 15.9973 36.0681 16.072C35.9881 16.1467 35.8841 16.184 35.7561 16.184ZM38.9035 21.056C38.5355 21.056 38.2102 20.9733 37.9275 20.808C37.6502 20.6427 37.4342 20.408 37.2795 20.104C37.1302 19.7947 37.0555 19.4373 37.0555 19.032C37.0555 18.6267 37.1302 18.272 37.2795 17.968C37.4342 17.6587 37.6502 17.4213 37.9275 17.256C38.2102 17.0907 38.5355 17.008 38.9035 17.008C39.2715 17.008 39.5968 17.0907 39.8795 17.256C40.1622 17.4213 40.3782 17.6587 40.5275 17.968C40.6822 18.272 40.7595 18.6267 40.7595 19.032C40.7595 19.4373 40.6822 19.7947 40.5275 20.104C40.3782 20.408 40.1622 20.6427 39.8795 20.808C39.5968 20.9733 39.2715 21.056 38.9035 21.056ZM38.9035 20.52C39.2875 20.52 39.5808 20.3947 39.7835 20.144C39.9915 19.888 40.0955 19.5173 40.0955 19.032C40.0955 18.5573 39.9915 18.192 39.7835 17.936C39.5755 17.6747 39.2822 17.544 38.9035 17.544C38.5248 17.544 38.2315 17.6747 38.0235 17.936C37.8155 18.192 37.7115 18.5573 37.7115 19.032C37.7115 19.512 37.8128 19.88 38.0155 20.136C38.2235 20.392 38.5195 20.52 38.9035 20.52ZM44.4861 17.224C44.5448 17.096 44.6381 17.032 44.7661 17.032C44.8461 17.032 44.9181 17.0587 44.9821 17.112C45.0461 17.1653 45.0781 17.232 45.0781 17.312C45.0781 17.36 45.0675 17.4027 45.0461 17.44L43.4861 20.8C43.4541 20.8693 43.4061 20.9253 43.3421 20.968C43.2781 21.0053 43.2088 21.024 43.1341 21.024C43.0648 21.024 42.9981 21.0053 42.9341 20.968C42.8701 20.9253 42.8195 20.8693 42.7821 20.8L41.2301 17.44C41.2088 17.4027 41.1981 17.3627 41.1981 17.32C41.1981 17.24 41.2328 17.1707 41.3021 17.112C41.3768 17.0533 41.4568 17.024 41.5421 17.024C41.5955 17.024 41.6461 17.04 41.6941 17.072C41.7475 17.104 41.7875 17.1493 41.8141 17.208L43.1501 20.208L44.4861 17.224ZM48.7566 20.096C48.8153 20.096 48.866 20.12 48.9086 20.168C48.9513 20.216 48.9726 20.2773 48.9726 20.352C48.9726 20.4853 48.8793 20.608 48.6926 20.72C48.5006 20.832 48.298 20.9173 48.0846 20.976C47.8713 21.0293 47.6633 21.056 47.4606 21.056C46.858 21.056 46.3806 20.8773 46.0286 20.52C45.682 20.1627 45.5086 19.6693 45.5086 19.04C45.5086 18.64 45.586 18.288 45.7406 17.984C45.8953 17.6747 46.1113 17.4347 46.3886 17.264C46.6713 17.0933 46.9913 17.008 47.3486 17.008C47.8553 17.008 48.258 17.1733 48.5566 17.504C48.8553 17.8347 49.0046 18.2827 49.0046 18.848C49.0046 18.9547 48.9833 19.032 48.9406 19.08C48.898 19.128 48.8286 19.152 48.7326 19.152H46.1566C46.2046 20.0693 46.6393 20.528 47.4606 20.528C47.6686 20.528 47.8473 20.5013 47.9966 20.448C48.146 20.3893 48.306 20.312 48.4766 20.216C48.6153 20.136 48.7086 20.096 48.7566 20.096ZM47.3566 17.512C47.0153 17.512 46.7406 17.6187 46.5326 17.832C46.33 18.0453 46.21 18.3467 46.1726 18.736H48.4366C48.426 18.3413 48.3273 18.04 48.1406 17.832C47.954 17.6187 47.6926 17.512 47.3566 17.512ZM54.2954 17.008C55.1594 17.008 55.5914 17.5227 55.5914 18.552V20.72C55.5914 20.8213 55.562 20.9013 55.5034 20.96C55.4447 21.0133 55.3674 21.04 55.2714 21.04C55.1754 21.04 55.0954 21.0133 55.0314 20.96C54.9727 20.9013 54.9434 20.8213 54.9434 20.72V18.568C54.9434 18.2107 54.8794 17.952 54.7514 17.792C54.6234 17.632 54.4234 17.552 54.1514 17.552C53.826 17.552 53.57 17.6613 53.3834 17.88C53.1967 18.0987 53.1034 18.3947 53.1034 18.768V20.72C53.1034 20.8213 53.0714 20.9013 53.0074 20.96C52.9487 21.0133 52.8714 21.04 52.7754 21.04C52.6794 21.04 52.602 21.0133 52.5434 20.96C52.4847 20.9013 52.4554 20.8213 52.4554 20.72V18.568C52.4554 18.2107 52.3914 17.952 52.2634 17.792C52.1354 17.632 51.9327 17.552 51.6554 17.552C51.3354 17.552 51.0794 17.6613 50.8874 17.88C50.7007 18.0987 50.6074 18.3947 50.6074 18.768V20.72C50.6074 20.8213 50.578 20.9013 50.5194 20.96C50.4607 21.0133 50.3834 21.04 50.2874 21.04C50.1914 21.04 50.1114 21.0133 50.0474 20.96C49.9887 20.9013 49.9594 20.8213 49.9594 20.72V17.344C49.9594 17.248 49.9887 17.1707 50.0474 17.112C50.1114 17.0533 50.1914 17.024 50.2874 17.024C50.378 17.024 50.4527 17.0533 50.5114 17.112C50.57 17.1653 50.5994 17.24 50.5994 17.336V17.72C50.7167 17.4907 50.8794 17.3147 51.0874 17.192C51.2954 17.0693 51.5354 17.008 51.8074 17.008C52.4154 17.008 52.8127 17.264 52.9994 17.776C53.1114 17.5413 53.282 17.3547 53.5114 17.216C53.7407 17.0773 54.002 17.008 54.2954 17.008Z" fill="white"/>
</g>
<defs>
<filter id="filter0_d" x="0" y="0" width="62" height="62" filterUnits="userSpaceOnUse" color-interpolation-filters="sRGB">
<feFlood flood-opacity="0" result="BackgroundImageFix"/>
<feColorMatrix in="SourceAlpha" type="matrix" values="0 0 0 0 0 0 0 0 0 0 0 0 0 0 0 0 0 0 127 0"/>
<feOffset dy="4"/>
<feGaussianBlur stdDeviation="2"/>
<feColorMatrix type="matrix" values="0 0 0 0 0 0 0 0 0 0 0 0 0 0 0 0 0 0 0.25 0"/>
<feBlend mode="normal" in2="BackgroundImageFix" result="effect1_dropShadow"/>
<feBlend mode="normal" in="SourceGraphic" in2="effect1_dropShadow" result="shape"/>
</filter>
</defs>
</svg>
