<svg width="245" height="28" viewBox="0 0 245 28" fill="none" xmlns="http://www.w3.org/2000/svg">
<path d="M23.3086 14.7832C23.3086 17.3027 22.8633 19.5117 21.9727 21.4102C21.082 23.3086 19.8047 24.7734 18.1406 25.8047C16.4883 26.8359 14.5898 27.3516 12.4453 27.3516C10.3242 27.3516 8.43164 26.8418 6.76758 25.8223C5.10352 24.8027 3.81445 23.3496 2.90039 21.4629C1.98633 19.5645 1.52344 17.3848 1.51172 14.9238V13.6582C1.51172 11.1387 1.96289 8.92383 2.86523 7.01367C3.7793 5.0918 5.0625 3.62109 6.71484 2.60156C8.37891 1.57031 10.2773 1.05469 12.4102 1.05469C14.543 1.05469 16.4355 1.57031 18.0879 2.60156C19.752 3.62109 21.0352 5.0918 21.9375 7.01367C22.8516 8.92383 23.3086 11.1328 23.3086 13.6406V14.7832ZM17.9648 13.623C17.9648 10.9395 17.4844 8.90039 16.5234 7.50586C15.5625 6.11133 14.1914 5.41406 12.4102 5.41406C10.6406 5.41406 9.27539 6.10547 8.31445 7.48828C7.35352 8.85938 6.86719 10.875 6.85547 13.5352V14.7832C6.85547 17.3965 7.33594 19.4238 8.29688 20.8652C9.25781 22.3066 10.6406 23.0273 12.4453 23.0273C14.2148 23.0273 15.5742 22.3359 16.5234 20.9531C17.4727 19.5586 17.9531 17.5312 17.9648 14.8711V13.623ZM37.4941 12.7441C36.8027 12.6504 36.1934 12.6035 35.666 12.6035C33.7441 12.6035 32.4844 13.2539 31.8867 14.5547V27H26.8066V7.98047H31.6055L31.7461 10.248C32.7656 8.50195 34.1777 7.62891 35.9824 7.62891C36.5449 7.62891 37.0723 7.70508 37.5645 7.85742L37.4941 12.7441ZM45.3164 27H40.2188V7.98047H45.3164V27ZM39.9199 3.05859C39.9199 2.29688 40.1719 1.66992 40.6758 1.17773C41.1914 0.685547 41.8887 0.439453 42.7676 0.439453C43.6348 0.439453 44.3262 0.685547 44.8418 1.17773C45.3574 1.66992 45.6152 2.29688 45.6152 3.05859C45.6152 3.83203 45.3516 4.46484 44.8242 4.95703C44.3086 5.44922 43.623 5.69531 42.7676 5.69531C41.9121 5.69531 41.2207 5.44922 40.6934 4.95703C40.1777 4.46484 39.9199 3.83203 39.9199 3.05859ZM58.2715 27.3516C55.4824 27.3516 53.209 26.4961 51.4512 24.7852C49.7051 23.0742 48.832 20.7949 48.832 17.9473V17.4551C48.832 15.5449 49.2012 13.8398 49.9395 12.3398C50.6777 10.8281 51.7207 9.66797 53.0684 8.85938C54.4277 8.03906 55.9746 7.62891 57.709 7.62891C60.3105 7.62891 62.3555 8.44922 63.8438 10.0898C65.3438 11.7305 66.0938 14.0566 66.0938 17.0684V19.1426H53.9824C54.1465 20.3848 54.6387 21.3809 55.459 22.1309C56.291 22.8809 57.3398 23.2559 58.6055 23.2559C60.5625 23.2559 62.0918 22.5469 63.1934 21.1289L65.6895 23.9238C64.9277 25.002 63.8965 25.8457 62.5957 26.4551C61.2949 27.0527 59.8535 27.3516 58.2715 27.3516ZM57.6914 11.7422C56.6836 11.7422 55.8633 12.082 55.2305 12.7617C54.6094 13.4414 54.2109 14.4141 54.0352 15.6797H61.1016V15.2754C61.0781 14.1504 60.7734 13.2832 60.1875 12.6738C59.6016 12.0527 58.7695 11.7422 57.6914 11.7422ZM73.6699 7.98047L73.8281 10.1777C75.1875 8.47852 77.0098 7.62891 79.2949 7.62891C81.3105 7.62891 82.8105 8.2207 83.7949 9.4043C84.7793 10.5879 85.2832 12.3574 85.3066 14.7129V27H80.2266V14.8359C80.2266 13.7578 79.9922 12.9785 79.5234 12.498C79.0547 12.0059 78.2754 11.7598 77.1855 11.7598C75.7559 11.7598 74.6836 12.3691 73.9688 13.5879V27H68.8887V7.98047H73.6699ZM95.2559 3.30469V7.98047H98.5078V11.707H95.2559V21.1992C95.2559 21.9023 95.3906 22.4062 95.6602 22.7109C95.9297 23.0156 96.4453 23.168 97.207 23.168C97.7695 23.168 98.2676 23.127 98.7012 23.0449V26.8945C97.7051 27.1992 96.6797 27.3516 95.625 27.3516C92.0625 27.3516 90.2461 25.5527 90.1758 21.9551V11.707H87.3984V7.98047H90.1758V3.30469H95.2559ZM112.359 27C112.125 26.543 111.955 25.9746 111.85 25.2949C110.619 26.666 109.02 27.3516 107.051 27.3516C105.188 27.3516 103.641 26.8125 102.41 25.7344C101.191 24.6562 100.582 23.2969 100.582 21.6562C100.582 19.6406 101.326 18.0938 102.814 17.0156C104.314 15.9375 106.477 15.3926 109.301 15.3809H111.639V14.291C111.639 13.4121 111.41 12.709 110.953 12.1816C110.508 11.6543 109.799 11.3906 108.826 11.3906C107.971 11.3906 107.297 11.5957 106.805 12.0059C106.324 12.416 106.084 12.9785 106.084 13.6934H101.004C101.004 12.5918 101.344 11.5723 102.023 10.6348C102.703 9.69727 103.664 8.96484 104.906 8.4375C106.148 7.89844 107.543 7.62891 109.09 7.62891C111.434 7.62891 113.291 8.2207 114.662 9.4043C116.045 10.5762 116.736 12.2285 116.736 14.3613V22.6055C116.748 24.4102 117 25.7754 117.492 26.7012V27H112.359ZM108.158 23.4668C108.908 23.4668 109.6 23.3027 110.232 22.9746C110.865 22.6348 111.334 22.1836 111.639 21.6211V18.3516H109.74C107.197 18.3516 105.844 19.2305 105.68 20.9883L105.662 21.2871C105.662 21.9199 105.885 22.4414 106.33 22.8516C106.775 23.2617 107.385 23.4668 108.158 23.4668ZM140.256 1.40625H145.529V19.125C145.529 20.7539 145.166 22.1953 144.439 23.4492C143.725 24.6914 142.711 25.6523 141.398 26.332C140.086 27.0117 138.604 27.3516 136.951 27.3516C134.244 27.3516 132.135 26.666 130.623 25.2949C129.111 23.9121 128.355 21.9609 128.355 19.4414H133.664C133.664 20.6953 133.928 21.6211 134.455 22.2188C134.982 22.8164 135.814 23.1152 136.951 23.1152C137.959 23.1152 138.762 22.7695 139.359 22.0781C139.957 21.3867 140.256 20.4023 140.256 19.125V1.40625ZM148.922 17.3145C148.922 15.4277 149.285 13.7461 150.012 12.2695C150.738 10.793 151.781 9.65039 153.141 8.8418C154.512 8.0332 156.1 7.62891 157.904 7.62891C160.471 7.62891 162.562 8.41406 164.18 9.98438C165.809 11.5547 166.717 13.6875 166.904 16.3828L166.939 17.6836C166.939 20.6016 166.125 22.9453 164.496 24.7148C162.867 26.4727 160.682 27.3516 157.939 27.3516C155.197 27.3516 153.006 26.4727 151.365 24.7148C149.736 22.957 148.922 20.5664 148.922 17.543V17.3145ZM154.002 17.6836C154.002 19.4883 154.342 20.8711 155.021 21.832C155.701 22.7812 156.674 23.2559 157.939 23.2559C159.17 23.2559 160.131 22.7871 160.822 21.8496C161.514 20.9004 161.859 19.3887 161.859 17.3145C161.859 15.5449 161.514 14.1738 160.822 13.2012C160.131 12.2285 159.158 11.7422 157.904 11.7422C156.662 11.7422 155.701 12.2285 155.021 13.2012C154.342 14.1621 154.002 15.6562 154.002 17.6836ZM176.906 20.7949L180.439 7.98047H185.748L179.332 27H174.48L168.064 7.98047H173.373L176.906 20.7949ZM196.506 27.3516C193.717 27.3516 191.443 26.4961 189.686 24.7852C187.939 23.0742 187.066 20.7949 187.066 17.9473V17.4551C187.066 15.5449 187.436 13.8398 188.174 12.3398C188.912 10.8281 189.955 9.66797 191.303 8.85938C192.662 8.03906 194.209 7.62891 195.943 7.62891C198.545 7.62891 200.59 8.44922 202.078 10.0898C203.578 11.7305 204.328 14.0566 204.328 17.0684V19.1426H192.217C192.381 20.3848 192.873 21.3809 193.693 22.1309C194.525 22.8809 195.574 23.2559 196.84 23.2559C198.797 23.2559 200.326 22.5469 201.428 21.1289L203.924 23.9238C203.162 25.002 202.131 25.8457 200.83 26.4551C199.529 27.0527 198.088 27.3516 196.506 27.3516ZM195.926 11.7422C194.918 11.7422 194.098 12.082 193.465 12.7617C192.844 13.4414 192.445 14.4141 192.27 15.6797H199.336V15.2754C199.312 14.1504 199.008 13.2832 198.422 12.6738C197.836 12.0527 197.004 11.7422 195.926 11.7422ZM211.992 7.98047L212.15 10.1074C213.498 8.45508 215.32 7.62891 217.617 7.62891C220.066 7.62891 221.748 8.5957 222.662 10.5293C223.998 8.5957 225.902 7.62891 228.375 7.62891C230.438 7.62891 231.973 8.23242 232.98 9.43945C233.988 10.6348 234.492 12.4395 234.492 14.8535V27H229.395V14.8711C229.395 13.793 229.184 13.0078 228.762 12.5156C228.34 12.0117 227.596 11.7598 226.529 11.7598C225.006 11.7598 223.951 12.4863 223.365 13.9395L223.383 27H218.303V14.8887C218.303 13.7871 218.086 12.9902 217.652 12.498C217.219 12.0059 216.48 11.7598 215.438 11.7598C213.996 11.7598 212.953 12.3574 212.309 13.5527V27H207.229V7.98047H211.992Z" fill="white"/>
</svg>
