<svg width="50" height="50" viewBox="0 0 50 50" fill="none" xmlns="http://www.w3.org/2000/svg">
<rect width="50" height="50" rx="25" fill="white"/>
<path d="M40 25.0912C40 16.7571 33.2837 10 25 10C16.7163 10 10 16.7571 10 25.0912C10 32.6242 15.485 38.8669 22.6562 39.9987V29.4538H18.8475V25.0899H22.6562V21.7673C22.6562 17.9857 24.8963 15.8956 28.3225 15.8956C29.9625 15.8956 31.68 16.1912 31.68 16.1912V19.9048H29.7875C27.9237 19.9048 27.3425 21.0681 27.3425 22.2616V25.0912H31.5025L30.8375 29.455H27.3425V40C34.515 38.8669 40 32.6229 40 25.0912Z" fill="#01015A"/>
</svg>
