<svg width="50" height="50" viewBox="0 0 50 50" fill="none" xmlns="http://www.w3.org/2000/svg">
<rect width="50" height="50" rx="25" fill="white"/>
<path d="M25 10C20.925 10 20.4163 10.0187 18.8162 10.09C17.2188 10.165 16.1312 10.4162 15.175 10.7875C14.1887 11.17 13.3512 11.6837 12.5175 12.5175C11.6837 13.3512 11.1688 14.1875 10.7875 15.175C10.4162 16.1312 10.1637 17.2188 10.09 18.8162C10.015 20.4163 10 20.925 10 25C10 29.075 10.0187 29.5837 10.09 31.1838C10.165 32.78 10.4162 33.8688 10.7875 34.825C11.17 35.81 11.6837 36.6488 12.5175 37.4825C13.3512 38.315 14.1875 38.8313 15.175 39.2125C16.1325 39.5825 17.22 39.8363 18.8162 39.91C20.4163 39.985 20.925 40 25 40C29.075 40 29.5837 39.9812 31.1838 39.91C32.78 39.835 33.8688 39.5825 34.825 39.2125C35.81 38.83 36.6488 38.315 37.4825 37.4825C38.315 36.6488 38.8313 35.8138 39.2125 34.825C39.5825 33.8688 39.8363 32.78 39.91 31.1838C39.985 29.5837 40 29.075 40 25C40 20.925 39.9812 20.4163 39.91 18.8162C39.835 17.22 39.5825 16.13 39.2125 15.175C38.83 14.1887 38.315 13.3512 37.4825 12.5175C36.6488 11.6837 35.8138 11.1688 34.825 10.7875C33.8688 10.4162 32.78 10.1637 31.1838 10.09C29.5837 10.015 29.075 10 25 10ZM25 12.7C29.0037 12.7 29.4813 12.72 31.0625 12.7887C32.525 12.8575 33.3188 13.1 33.8462 13.3075C34.5487 13.5787 35.0462 13.9038 35.5737 14.4275C36.0975 14.9525 36.4225 15.4513 36.6937 16.1537C36.8988 16.6812 37.1437 17.475 37.21 18.9375C37.2812 20.52 37.2975 20.995 37.2975 25C37.2975 29.005 37.2787 29.4813 37.205 31.0625C37.1287 32.525 36.885 33.3188 36.6788 33.8462C36.3988 34.5487 36.08 35.0462 35.555 35.5737C35.0312 36.0975 34.525 36.4225 33.83 36.6937C33.305 36.8988 32.4988 37.1437 31.0363 37.21C29.4438 37.2812 28.975 37.2975 24.9625 37.2975C20.9488 37.2975 20.48 37.2787 18.8888 37.205C17.425 37.1287 16.6188 36.885 16.0938 36.6788C15.3825 36.3988 14.8938 36.08 14.37 35.555C13.8438 35.0312 13.5075 34.525 13.245 33.83C13.0387 33.305 12.7963 32.4988 12.72 31.0363C12.6638 29.4613 12.6437 28.975 12.6437 24.9812C12.6437 20.9862 12.6638 20.4987 12.72 18.905C12.7963 17.4425 13.0387 16.6375 13.245 16.1125C13.5075 15.4 13.8438 14.9125 14.37 14.3863C14.8938 13.8625 15.3825 13.525 16.0938 13.2638C16.6188 13.0563 17.4075 12.8125 18.87 12.7375C20.4637 12.6813 20.9325 12.6625 24.9438 12.6625L25 12.7ZM25 17.2975C20.7437 17.2975 17.2975 20.7475 17.2975 25C17.2975 29.2563 20.7475 32.7025 25 32.7025C29.2563 32.7025 32.7025 29.2525 32.7025 25C32.7025 20.7437 29.2525 17.2975 25 17.2975ZM25 30C22.2375 30 20 27.7625 20 25C20 22.2375 22.2375 20 25 20C27.7625 20 30 22.2375 30 25C30 27.7625 27.7625 30 25 30ZM34.8075 16.9937C34.8075 17.9875 34 18.7937 33.0075 18.7937C32.0138 18.7937 31.2075 17.9862 31.2075 16.9937C31.2075 16.0012 32.015 15.195 33.0075 15.195C33.9988 15.1938 34.8075 16.0012 34.8075 16.9937Z" fill="#01015A"/>
</svg>
