<svg width="50" height="50" viewBox="0 0 50 50" fill="none" xmlns="http://www.w3.org/2000/svg">
<rect width="50" height="50" rx="25" fill="white"/>
<path d="M40.9412 16.7125C39.8181 17.207 38.6283 17.5334 37.41 17.6812C38.6926 16.9103 39.653 15.7013 40.1138 14.2775C38.925 14.9712 37.6075 15.4762 36.205 15.7575C35.2797 14.768 34.0536 14.1118 32.7171 13.8906C31.3805 13.6695 30.0084 13.8958 28.8137 14.5345C27.619 15.1732 26.6686 16.1884 26.1101 17.4226C25.5516 18.6569 25.4162 20.0409 25.725 21.36C20.6125 21.1187 16.0838 18.6625 13.05 14.9525C12.4985 15.8898 12.2108 16.9588 12.2175 18.0462C12.2175 20.1837 13.305 22.0625 14.9525 23.1662C13.9761 23.1352 13.0212 22.8712 12.1675 22.3962V22.4712C12.1669 23.8917 12.6578 25.2687 13.5569 26.3684C14.4559 27.4682 15.7078 28.2231 17.1 28.505C16.1979 28.7467 15.253 28.783 14.335 28.6112C14.7302 29.8337 15.4971 30.9024 16.5288 31.6681C17.5605 32.4338 18.8054 32.8583 20.09 32.8825C17.9144 34.5899 15.2281 35.5166 12.4625 35.5137C11.975 35.5137 11.4888 35.485 11 35.43C13.8196 37.2354 17.0981 38.1937 20.4462 38.1912C31.7625 38.1912 37.9438 28.8212 37.9438 20.71C37.9438 20.4475 37.9438 20.185 37.925 19.9225C39.1325 19.0536 40.174 17.9748 41 16.7375L40.9412 16.7125Z" fill="#01015A"/>
</svg>
