<svg width="50" height="50" viewBox="0 0 50 50" fill="none" xmlns="http://www.w3.org/2000/svg">
<rect width="50" height="50" rx="25" fill="white"/>
<path d="M39.3725 18.3012C39.203 17.6628 38.8688 17.0802 38.4033 16.6116C37.9377 16.143 37.3573 15.8049 36.72 15.6313C34.3812 15 25 15 25 15C25 15 15.6187 15 13.2787 15.6313C12.6418 15.8052 12.0616 16.1434 11.5963 16.612C11.1311 17.0805 10.797 17.663 10.6275 18.3012C10 20.6562 10 25.5688 10 25.5688C10 25.5688 10 30.4812 10.6275 32.8362C10.797 33.4747 11.1312 34.0573 11.5967 34.5259C12.0623 34.9945 12.6427 35.3326 13.28 35.5063C15.6188 36.1375 25 36.1375 25 36.1375C25 36.1375 34.3813 36.1375 36.7213 35.5063C37.3586 35.3327 37.9391 34.9947 38.4046 34.5261C38.8702 34.0574 39.2044 33.4747 39.3738 32.8362C40 30.4812 40 25.5688 40 25.5688C40 25.5688 40 20.6562 39.3725 18.3012ZM21.9312 30.0287V21.1088L29.7725 25.5688L21.9312 30.0287Z" fill="#01015A"/>
</svg>
